<svg width="321" height="386" viewBox="0 0 321 386" fill="none" xmlns="http://www.w3.org/2000/svg">
<path d="M159.811 385.676C139.061 367.426 119.041 348.406 99.9608 328.426C75.2408 302.546 51.9608 275.456 32.2908 245.456C22.8208 231.006 14.5908 215.906 8.09084 199.836C-2.50916 173.626 -2.01916 146.966 5.65084 120.466C22.7608 61.3264 61.0908 22.0664 120.621 6.69639C179.191 -8.42361 231.301 6.61639 274.571 49.1564C300.871 75.0064 315.141 106.976 320.011 143.586C323.811 172.166 315.771 197.696 302.601 222.256C286.561 252.186 265.771 278.716 243.451 304.116C217.931 333.166 190.301 360.116 161.311 385.676C160.811 385.676 160.311 385.676 159.811 385.676ZM160.441 273.096C220.861 273.736 272.331 224.126 272.091 161.326C271.861 101.336 224.481 50.1164 160.501 50.1664C96.1608 50.2064 48.8608 102.026 49.0008 162.196C49.1508 223.416 99.0908 273.166 160.441 273.096Z" fill="black"/>
<path d="M177.138 114.935C177.138 120.185 177.308 125.435 177.078 130.675C176.938 133.705 178.138 135.105 180.868 136.175C201.438 144.285 221.948 152.525 242.478 160.735C247.288 162.655 247.278 162.655 243.818 166.555C241.668 168.985 239.398 171.345 237.478 173.945C235.768 176.255 233.728 176.905 230.988 176.565C214.398 174.455 197.798 172.495 181.218 170.285C178.278 169.895 177.068 170.305 177.108 173.505C177.218 183.875 177.188 194.245 177.118 204.615C177.098 206.845 177.918 208.345 179.688 209.655C185.608 214.045 191.378 218.635 197.348 222.965C199.868 224.795 199.828 226.175 197.668 228.215C194.318 231.395 191.058 234.695 187.948 238.105C186.198 240.015 184.648 240.145 182.398 238.955C176.658 235.915 170.718 233.245 165.028 230.135C161.978 228.465 159.418 228.345 156.318 230.055C150.638 233.195 144.688 235.845 138.948 238.885C136.598 240.125 134.938 240.065 133.078 237.995C130.078 234.655 126.898 231.445 123.608 228.385C121.308 226.245 121.218 224.805 123.918 222.875C129.708 218.735 135.268 214.265 141.018 210.075C143.148 208.525 144.058 206.745 144.028 204.095C143.918 193.975 143.928 183.855 144.018 173.735C144.038 170.875 143.408 169.835 140.128 170.285C123.688 172.535 107.198 174.455 90.7479 176.575C87.5979 176.985 85.2679 176.255 83.3179 173.555C81.2779 170.735 78.8779 168.145 76.4379 165.645C74.3279 163.485 74.5179 162.365 77.4179 161.235C89.4079 156.555 101.328 151.725 113.278 146.955C122.208 143.385 131.108 139.725 140.088 136.305C142.948 135.215 144.118 133.705 144.058 130.535C143.868 120.045 143.908 109.545 144.018 99.0448C144.108 90.3348 148.928 83.7748 156.388 81.8548C167.068 79.1148 176.688 86.7548 177.088 98.4548C177.278 103.945 177.118 109.455 177.118 114.945C177.128 114.935 177.128 114.935 177.138 114.935Z" fill="black"/>
</svg>
