<svg width="227" height="385" viewBox="0 0 227 385" fill="none" xmlns="http://www.w3.org/2000/svg">
<path d="M62.8628 206.407C62.8628 164.406 62.9302 122.404 62.8207 80.403C62.7869 68.5098 65.2398 57.3162 70.5078 46.662C75.8096 35.932 76.7452 23.9883 79.5689 12.5671C79.9735 10.9319 80.1927 9.25451 80.6394 7.62773C82.0133 2.57881 85.2079 -0.0172913 89.9028 0.00799546C94.682 0.0417111 98.1884 2.9244 99.1999 8.10818C100.304 13.7556 101.164 19.4451 101.99 25.143C103.381 34.7435 105.117 44.2429 108.463 53.4052C111.708 62.2724 111.514 71.6622 111.826 80.875C112.695 106.693 113.158 132.527 113.875 158.354C114.979 198.214 116.142 238.066 117.314 277.926C117.895 297.852 118.586 317.778 119.126 337.704C119.185 339.912 118.772 342.188 118.241 344.354C116.243 352.539 114.127 360.69 112.02 368.84C109.39 378.997 104.131 383.456 93.7632 384.476C90.2231 384.822 86.6998 384.619 83.2945 383.776C76.3912 382.074 72.1178 377.48 70.373 370.695C67.9623 361.313 65.8214 351.865 63.5118 342.458C62.8965 339.963 62.8712 337.46 62.8712 334.922C62.8628 292.095 62.8628 249.251 62.8628 206.407ZM109.997 240.215C109.921 232.663 104.308 226.67 97.2696 226.619C90.7288 226.577 84.601 233.017 84.5925 239.954C84.5841 247.818 90.1978 253.895 97.4129 253.811C104.535 253.735 110.073 247.751 109.997 240.215ZM84.1121 283.759C84.1542 291.606 89.3886 297.018 96.8398 296.925C104.072 296.841 109.23 291.151 109.205 283.287C109.18 275.633 103.735 270.02 96.393 270.104C89.0683 270.188 84.0615 275.76 84.1121 283.759ZM84.1037 191.96C84.0531 199.655 89.4392 205.631 96.4942 205.716C103.44 205.791 109.146 199.74 109.197 192.221C109.247 184.711 103.65 178.524 96.7386 178.457C89.6752 178.389 84.1542 184.281 84.1037 191.96Z" fill="black"/>
<path d="M178.772 337.985C192.949 337.985 207.135 338.111 221.304 337.909C225.392 337.85 227.019 338.853 226.926 343.278C226.648 355.483 226.758 367.705 226.893 379.918C226.926 383.13 226.033 384.276 222.619 384.259C197.079 384.124 171.54 384.183 146.009 384.2C141.946 384.2 137.875 384.242 133.812 384.369C131.317 384.445 130.297 383.4 130.314 380.879C130.373 367.966 130.407 355.045 130.297 342.132C130.272 338.676 131.907 337.917 134.975 337.942C149.574 338.035 164.173 337.985 178.772 337.985Z" fill="black"/>
<path d="M55.8289 205.566C57.5569 207.286 57.0511 208.921 57.0511 210.379C57.0848 249.43 57.0343 288.473 57.1354 327.524C57.1438 331.469 55.9975 333.534 51.9685 334.739C36.1053 339.502 20.3516 344.643 4.54743 349.617C3.40952 349.979 2.04404 351.033 1.05786 349.802C0.332968 348.892 1.218 347.653 1.60573 346.633C19.2222 300.451 36.847 254.286 54.4887 208.112C54.7838 207.362 55.2473 206.671 55.8289 205.566Z" fill="black"/>
<path d="M57.5922 71.4414C58.4183 72.9755 58.098 74.4084 58.098 75.7823C58.1148 114.968 58.0474 154.154 58.1991 193.332C58.216 197.605 56.8252 199.46 52.7456 200.682C37.1521 205.36 21.6766 210.434 6.14215 215.306C4.99582 215.669 3.60505 216.697 2.57672 215.736C1.28709 214.531 2.55986 213.098 3.03188 211.867C20.5219 165.946 38.0456 120.043 55.5946 74.1471C55.957 73.1946 55.8727 71.846 57.5922 71.4414Z" fill="black"/>
<path d="M178.553 207.656C164.233 207.656 149.912 207.554 135.6 207.715C131.588 207.757 130.146 206.324 130.256 202.303C130.483 194.169 130.424 186.019 130.281 177.876C130.222 174.454 131.503 173.097 134.942 173.106C164.14 173.173 193.338 173.165 222.544 173.114C225.806 173.106 226.952 174.387 226.885 177.64C226.716 186.061 226.666 194.49 226.902 202.91C227.003 206.72 225.435 207.731 221.937 207.706C207.473 207.597 193.017 207.656 178.553 207.656Z" fill="black"/>
<path d="M178.061 148.095C163.757 148.095 149.445 147.993 135.141 148.162C131.44 148.204 130.193 146.915 130.269 143.29C130.446 135.3 130.387 127.3 130.294 119.31C130.26 116.25 131.112 114.691 134.568 114.699C163.883 114.784 193.191 114.775 222.506 114.699C225.811 114.691 226.932 115.938 226.873 119.175C226.721 127.309 226.696 135.443 226.881 143.577C226.957 147.075 225.667 148.187 222.237 148.162C207.511 148.01 192.786 148.086 178.061 148.095Z" fill="black"/>
<path d="M178.919 232.655C193.24 232.655 207.569 232.773 221.89 232.579C225.818 232.529 227.015 233.903 226.897 237.687C226.678 245.265 226.711 252.851 226.88 260.437C226.956 263.817 225.877 265.208 222.328 265.199C193.122 265.107 163.907 265.115 134.701 265.191C131.38 265.199 130.242 263.884 130.284 260.69C130.402 252.826 130.445 244.962 130.276 237.097C130.2 233.49 131.793 232.579 135.097 232.605C149.713 232.723 164.312 232.655 178.919 232.655Z" fill="black"/>
<path d="M178.598 89.7927C164.277 89.7927 149.957 89.6831 135.636 89.8601C131.649 89.9107 130.123 88.6464 130.258 84.5668C130.503 77.1325 130.41 69.6898 130.3 62.247C130.258 59.2379 131.278 58.1 134.439 58.0241C163.493 57.3161 192.556 57.9483 221.611 57.7038C225.496 57.6701 227.081 59.0356 226.921 63.1321C226.634 70.4231 226.685 77.7309 226.913 85.0304C227.031 88.7812 225.572 89.9023 221.99 89.8686C207.534 89.7337 193.07 89.8096 178.606 89.8096C178.598 89.8011 178.598 89.7927 178.598 89.7927Z" fill="black"/>
<path d="M178.508 312.517C164.061 312.517 149.622 312.425 135.175 312.585C131.534 312.627 130.084 311.43 130.269 307.747C130.48 303.549 130.489 299.326 130.261 295.128C130.059 291.31 131.475 289.987 135.352 290.012C157.233 290.155 179.115 290.08 200.996 290.08C208.153 290.08 215.309 290.181 222.456 290.037C225.727 289.97 226.991 291.209 226.856 294.479C226.671 298.964 226.654 303.465 226.865 307.94C227.025 311.405 225.735 312.593 222.263 312.559C207.689 312.441 193.099 312.517 178.508 312.517Z" fill="black"/>
<path d="M178.94 12.7623C193.117 12.7623 207.295 12.9056 221.464 12.678C225.796 12.6105 227.263 14.0856 226.883 18.2748C226.597 21.4778 226.622 24.7398 226.875 27.9512C227.17 31.702 225.644 32.7725 222.02 32.7557C199.709 32.6292 177.389 32.6882 155.077 32.6967C148.343 32.6967 141.608 32.5955 134.882 32.8062C131.375 32.9158 130.094 31.5503 130.28 28.1282C130.465 24.6302 130.482 21.1069 130.28 17.6089C130.06 13.9507 131.485 12.6864 135.16 12.7201C149.75 12.8466 164.349 12.7623 178.94 12.7623Z" fill="black"/>
</svg>
