<svg width="386" height="386" viewBox="0 0 386 386" fill="none" xmlns="http://www.w3.org/2000/svg">
<path d="M0.945312 36.5819C2.30665 34.0193 4.1785 31.8672 6.23052 29.8252C14.3986 21.7272 22.5566 13.6192 30.6246 5.43117C34.4984 1.4973 38.9227 -0.204379 44.1879 1.83763C49.303 3.81959 51.7354 7.83354 51.4651 13.3089C51.2949 16.7023 53.447 16.6823 55.8494 16.8424C69.8032 17.7633 83.7469 18.7343 97.6906 19.7653C102.816 20.1457 106.399 22.8483 108.001 27.7131C109.532 32.4078 108.261 36.5618 104.768 40.0553C83.1063 61.7066 61.4549 83.3579 39.8036 105.019C36.2101 108.613 31.9659 109.944 27.1311 108.252C22.2863 106.561 19.7739 102.917 19.4135 97.7721C18.4526 84.1988 17.3515 70.6354 16.5907 57.052C16.3905 53.4485 15.82 51.5466 11.5758 51.7268C6.3106 51.947 3.20754 48.4235 0.945312 44.0893C0.945312 41.5868 0.945312 39.0843 0.945312 36.5819Z" fill="black"/>
<path d="M0.941895 342.885C3.54446 337.78 7.37824 334.677 13.4342 335.118C15.5263 335.268 16.307 334.097 16.4372 332.165C17.1879 320.583 17.9587 309.002 18.7494 297.42C18.9596 294.307 19.1098 291.184 19.5202 288.091C20.7014 279.142 30.8914 274.948 38.0785 280.424C39.0695 281.174 39.9403 282.085 40.8212 282.966C61.7718 303.897 82.7024 324.847 103.653 345.768C105.895 348.01 107.937 350.343 108.438 353.616C109.469 360.322 105.285 366.338 98.498 367.059C88.9486 368.07 79.3491 368.621 69.7597 369.301C64.7848 369.662 59.7899 369.912 54.805 370.162C52.803 370.262 51.3115 370.803 51.4817 373.185C51.9121 379.231 48.8191 383.075 43.714 385.677C41.2116 385.677 38.7091 385.677 36.2066 385.677C33.6641 384.306 31.502 382.464 29.47 380.412C21.7524 372.615 13.9948 364.857 6.19707 357.129C4.14505 355.097 2.28322 352.945 0.921875 350.393C0.941895 347.89 0.941895 345.388 0.941895 342.885Z" fill="black"/>
<path d="M342.532 385.678C337.427 383.075 334.334 379.241 334.764 373.185C334.934 370.803 333.433 370.282 331.441 370.162C319.109 369.392 306.766 368.601 294.434 367.78C292.192 367.63 289.95 367.41 287.728 367.109C278.969 365.928 274.695 355.978 279.88 348.821C280.611 347.82 281.512 346.929 282.392 346.049C303.513 324.918 324.664 303.827 345.735 282.646C349.168 279.203 352.962 277.331 357.827 278.282C362.661 279.223 366.345 283.267 366.765 288.562C367.877 302.496 368.888 316.449 369.698 330.403C369.899 333.776 370.619 335.398 374.433 335.228C379.118 335.008 382.551 337.55 384.503 341.754C386.455 345.948 386.305 350.413 383.122 353.716C373.332 363.896 363.222 373.756 353.192 383.686C352.331 384.536 351.1 385.027 350.039 385.678C347.537 385.678 345.034 385.678 342.532 385.678Z" fill="black"/>
<path d="M193.044 325.131C120.182 325.591 61.2338 264.811 61.3439 193.301C61.454 121.42 121.033 61.591 193.424 61.7111C265.555 61.8312 325.144 121.74 324.914 193.871C324.683 266.102 264.774 325.881 193.044 325.131ZM252.172 193.751C252.172 175.994 252.242 158.236 252.142 140.479C252.102 133.622 247.237 128.507 241.191 128.507C235.145 128.507 230.441 133.632 230.21 140.469C230.18 141.47 230.2 142.471 230.2 143.472C230.2 154.853 230.07 166.234 230.27 177.615C230.33 181.269 229.43 182.61 225.496 182.58C203.984 182.4 182.473 182.5 160.962 182.49C156.117 182.49 156.097 182.46 156.097 177.415C156.087 165.283 156.097 153.151 156.087 141.019C156.087 135.834 154.155 131.69 149.241 129.508C141.983 126.285 134.296 131.71 134.146 140.319C133.965 150.699 134.096 161.079 134.096 171.459C134.096 196.344 134.066 221.238 134.126 246.123C134.146 253.25 138.91 258.465 145.086 258.475C151.262 258.485 155.917 253.26 156.087 246.143C156.107 245.272 156.097 244.391 156.097 243.52C156.097 232.019 156.197 220.508 156.037 209.006C155.997 205.703 156.848 204.412 160.422 204.432C182.183 204.582 203.944 204.582 225.706 204.432C229.45 204.402 230.31 205.743 230.27 209.216C230.1 221.599 230.14 233.981 230.24 246.363C230.29 253.26 234.955 258.355 241.041 258.495C247.177 258.635 251.992 253.37 252.192 246.313C252.222 245.312 252.202 244.311 252.202 243.31C252.182 226.774 252.182 210.267 252.172 193.751Z" fill="black"/>
<path d="M346.13 1.05661C349.604 0.916467 352.457 2.29783 354.859 4.70019C363.888 13.7191 372.927 22.7179 381.916 31.7669C385.639 35.5106 386.69 39.985 384.648 44.8598C382.666 49.6044 378.843 52.0468 373.688 51.7866C370.264 51.6164 369.904 53.4582 369.734 56.1809C368.843 70.1447 367.822 84.0984 366.811 98.0522C366.45 103.027 363.888 106.551 359.203 108.222C354.539 109.884 350.295 108.813 346.791 105.319C324.93 83.4878 303.088 61.6463 281.256 39.7848C277.743 36.2713 276.712 32.0271 278.384 27.3725C280.065 22.6979 283.589 20.1554 288.574 19.7951C302.407 18.7941 316.231 17.713 330.065 16.9222C333.498 16.722 334.909 15.8912 334.859 12.1475C334.779 5.79127 339.844 1.10665 346.13 1.05661Z" fill="black"/>
</svg>
