<svg width="359" height="269" viewBox="0 0 359 269" fill="none" xmlns="http://www.w3.org/2000/svg">
<path d="M340.247 82.4735C342.718 82.4735 345.188 82.4453 347.659 82.4735C356.355 82.6005 359.361 85.7909 358.867 94.5716C357.865 112.458 354.209 129.821 348.237 146.719C339.951 170.153 328.389 191.879 314.357 212.334C309.713 219.096 310.066 225.463 315.035 232.069C321.02 240.031 323.928 249.278 325.086 259.018C325.834 265.286 322.474 268.773 316.037 268.378C298.095 267.291 280.18 265.978 262.252 264.651C246.088 263.465 229.939 262.124 213.789 260.882C187.263 258.835 160.738 256.816 134.213 254.811C114.011 253.287 93.8102 251.819 73.6091 250.28C55.3419 248.896 37.0748 247.457 18.8077 246.031C14.502 245.692 11.8481 242.855 9.49057 239.706C2.24865 229.994 0.808734 218.644 0.964019 207.054C1.07695 199.304 2.34747 191.625 4.02737 184.03C5.17083 178.877 8.22006 175.898 13.5844 175.884C40.4346 175.8 64.3908 165.678 87.0059 152.888C144.32 120.462 205.432 99.5125 270.327 89.1366C293.492 85.4521 316.799 83.264 340.247 82.4735ZM258.822 165.283C269 165.381 276.863 157.843 276.919 147.933C276.976 138.263 269.282 130.569 259.485 130.471C249.152 130.358 241.599 137.67 241.571 147.806C241.557 157.758 248.883 165.184 258.822 165.283ZM212.49 163.575C212.716 155.231 206.843 148.851 198.755 148.653C190.44 148.455 184.299 154.314 184.144 162.629C183.988 170.845 190.016 177.268 198.063 177.494C205.615 177.705 212.278 171.254 212.49 163.575ZM137.544 167.767C131.7 167.711 127.182 172.256 127.239 178.157C127.295 183.832 131.587 188.18 137.262 188.279C142.866 188.378 147.793 183.493 147.722 177.917C147.652 172.539 142.923 167.824 137.544 167.767Z" fill="black"/>
<path d="M144.49 57.1583C161.063 57.1583 177.637 57.13 194.21 57.1724C203.414 57.2006 205.729 59.5722 205.757 68.7764C205.771 73.7173 205.475 78.6723 205.842 83.5849C206.209 88.3564 204.289 90.361 199.744 91.6174C172.526 99.1699 146.071 108.868 120.562 121.037C110.864 125.667 101.307 130.58 91.8206 135.648C87.8678 137.751 86.555 137.088 86.5691 132.584C86.6538 109.32 86.682 86.0413 86.555 62.7768C86.5267 58.217 88.5455 57.0877 92.6676 57.13C109.932 57.2289 127.211 57.1583 144.49 57.1583Z" fill="black"/>
<path d="M73.9905 102.81C73.9905 114.795 73.7929 126.78 74.0893 138.766C74.2022 143.565 72.4376 146.064 68.1179 147.998C57.4879 152.769 46.7309 157.089 35.4516 160.11C31.1036 161.282 29.4096 160.223 29.4378 155.48C29.6072 134.149 29.5367 112.819 29.4943 91.5025C29.4802 86.4628 31.3436 82.8207 35.9739 80.3644C46.8721 74.5906 57.615 68.5204 68.4708 62.6619C73.1576 60.1209 73.9058 60.5444 73.9481 65.81C74.047 78.1339 73.9905 90.472 73.9905 102.81Z" fill="black"/>
<path d="M139.158 44.5255C130.871 44.5255 122.585 44.4408 114.298 44.5537C110.275 44.6102 108.637 42.9444 108.722 38.8506C108.905 29.3358 108.694 19.807 108.807 10.2923C108.877 3.6856 111.333 0.636368 117.954 0.481083C132.226 0.14228 146.513 0.170513 160.771 0.523434C167.194 0.678718 169.509 3.6009 169.579 9.99581C169.692 19.6941 169.452 29.3923 169.678 39.0764C169.777 43.3679 167.914 44.6243 164.003 44.5679C155.731 44.4408 147.444 44.5255 139.158 44.5255Z" fill="black"/>
</svg>
